<?xml version="1.0" encoding="UTF-8" standalone="no"?>
<svg
   xmlns:dc="http://purl.org/dc/elements/1.1/"
   xmlns:cc="http://creativecommons.org/ns#"
   xmlns:rdf="http://www.w3.org/1999/02/22-rdf-syntax-ns#"
   xmlns:svg="http://www.w3.org/2000/svg"
   xmlns="http://www.w3.org/2000/svg"
   viewBox="0 0 595.27557 841.88977"
   id="svg54"
   height="841.88977"
   width="595.27557"
   version="1.1">
  <metadata
     id="metadata60">
    <rdf:RDF>
      <cc:Work
         rdf:about="">
        <dc:format>image/svg+xml</dc:format>
        <dc:type
           rdf:resource="http://purl.org/dc/dcmitype/StillImage" />
      </cc:Work>
    </rdf:RDF>
  </metadata>
  <defs
     id="defs58" />
  <g
     id="g52">
    <path
       id="path2"
       style="fill:#ed1c24;fill-rule:evenodd;stroke:#a25641;stroke-width:0.7087;stroke-linecap:butt;stroke-linejoin:miter;stroke-dasharray:none"
       d="m 273.2219,412.5877 a 5.2046,7.3206 -33.7383 0 1 8.1817,4.8864 5.2046,7.3206 -33.7383 1 1 -8.1817,-4.8864 z" />
    <g
       id="g8">
      <path
         id="path4"
         style="fill:#ca6d39;fill-rule:evenodd;stroke:#a25641;stroke-width:0.7087;stroke-linecap:butt;stroke-linejoin:miter;stroke-dasharray:none"
         d="m 284.5996,406.1891 c -1.4746,8.174 -8.5936,14.3728 -17.1536,14.3728 -3.7128,0 -7.1538,-1.1673 -9.9817,-3.1549 l 5.8513,-5.8476 c 1.2473,0.612 2.6487,0.9558 4.1304,0.9558 4.0045,0 7.4253,-2.5095 8.7914,-6.0486 z" />
      <path
         id="path6"
         style="fill:#ed1c24;fill-rule:evenodd;stroke:#a25641;stroke-width:0.7087;stroke-linecap:butt;stroke-linejoin:miter;stroke-dasharray:none"
         d="m 267.446,385.5257 c 9.388,0 17.0419,7.4568 17.4186,16.797 l -8.0033,0.2656 c -0.2367,-5.0193 -4.3614,-9.0159 -9.4153,-9.0159 -5.2058,0 -9.4263,4.2406 -9.4263,9.4714 0,2.3349 0.8413,4.4719 2.2354,6.1231 l -5.6878,5.6843 c -2.8298,-3.1144 -4.5558,-7.2581 -4.5558,-11.8074 0,-9.6749 7.8058,-17.5181 17.4345,-17.5181 z" />
    </g>
    <text
       id="text12"
       y="420.3082"
       x="233.1553">
      <tspan
         style="font-size:57.5px;font-family:'OCR A Extended';fill:#ed1c24"
         id="tspan10"
         font-size="57.5000">F</tspan>
    </text>
    <text
       id="text16"
       y="419.69"
       x="232.39729">
      <tspan
         style="font-size:57.5px;font-family:'OCR A Extended';fill:#000000"
         id="tspan14"
         font-size="57.5000">F</tspan>
    </text>
    <text
       id="text20"
       y="419.60721"
       x="308.93701">
      <tspan
         style="font-size:57px;font-family:'OCR A Extended';fill:#f5821f"
         id="tspan18"
         font-size="57.0000">n</tspan>
    </text>
    <text
       id="text24"
       y="419.60721"
       x="332.83621">
      <tspan
         style="font-size:56.5px;font-family:'OCR A Extended';fill:#f5821f"
         id="tspan22"
         font-size="56.5000">e</tspan>
    </text>
    <text
       id="text28"
       y="419.60721"
       x="354.8197">
      <tspan
         style="font-size:57.5px;font-family:'OCR A Extended';fill:#f5821f"
         id="tspan26"
         font-size="57.5000">t</tspan>
    </text>
    <text
       id="text32"
       y="420.35159"
       x="285.14069">
      <tspan
         style="font-size:57px;font-family:'OCR A Extended';fill:#ed1c24"
         id="tspan30"
         font-size="57.0000">x</tspan>
    </text>
    <text
       id="text36"
       y="419.7847"
       x="284.57379">
      <tspan
         style="font-size:57px;font-family:'OCR A Extended';fill:#000000"
         id="tspan34"
         font-size="57.0000">x</tspan>
    </text>
    <path
       id="path38"
       style="fill:#ca6d39;fill-rule:evenodd;stroke:#a25641;stroke-width:0.7087;stroke-linecap:butt;stroke-linejoin:miter;stroke-dasharray:none"
       d="m 248.0846,405.061 c -0.6799,0.0784 -1.3916,0.071 -2.1066,-0.0341 -3.6351,-0.5361 -6.7939,-3.2867 -6.3466,-5.2579 0.4762,-2.0989 4.7972,-3.3935 8.6584,-2.8238 0.1697,0.0247 0.3375,0.0557 0.5013,0.0908 -1.0501,2.5883 -1.2621,5.3843 -0.7065,8.025 z" />
    <path
       id="path40"
       style="fill:#a25641;fill-rule:evenodd;stroke:#a25641;stroke-width:0.7087;stroke-linecap:butt;stroke-linejoin:miter;stroke-dasharray:none"
       d="m 248.0672,404.9694 c -0.6797,0.0785 -1.3915,0.0711 -2.1064,-0.034 -3.6352,-0.5361 -6.7941,-3.2868 -6.3468,-5.258 0.4762,-2.0988 4.7974,-3.3934 8.6584,-2.8239 0.1698,0.025 0.3376,0.0559 0.5015,0.091 -0.0768,0.1894 -0.1488,0.3801 -0.2169,0.5715 -0.0728,-0.0125 -0.1465,-0.0241 -0.2205,-0.0346 -3.4971,-0.4879 -7.4115,0.6213 -7.8426,2.4191 -0.4054,1.688 2.4559,4.0439 5.7484,4.5031 0.5839,0.0811 1.1659,0.0944 1.726,0.0473 0.0297,0.1735 0.0626,0.3461 0.0989,0.5185 z" />
    <g
       id="g46">
      <path
         id="path42"
         style="fill:#ca6d39;fill-rule:evenodd;stroke:#a25641;stroke-width:0.7087;stroke-linecap:butt;stroke-linejoin:miter;stroke-dasharray:none"
         d="m 275.4188,385.4602 c 0.3043,-0.613 0.6979,-1.206 1.1753,-1.7486 2.4283,-2.7576 6.4552,-3.9103 7.8653,-2.4622 1.5016,1.542 0.2355,5.8715 -2.344,8.8005 -0.1131,0.1289 -0.2306,0.2528 -0.3491,0.3711 -1.5997,-2.2898 -3.8298,-3.9895 -6.3475,-4.9608 z" />
      <path
         id="path44"
         style="fill:#a25641;fill-rule:evenodd;stroke:#a25641;stroke-width:0.7087;stroke-linecap:butt;stroke-linejoin:miter;stroke-dasharray:none"
         d="m 275.5052,385.4955 c 0.3041,-0.613 0.6977,-1.2061 1.175,-1.7485 2.4284,-2.7577 6.4554,-3.9104 7.8655,-2.4622 1.5014,1.5419 0.2354,5.8714 -2.344,8.8004 -0.1133,0.1289 -0.2306,0.2528 -0.3493,0.3712 -0.117,-0.1675 -0.2379,-0.3318 -0.3613,-0.493 0.0501,-0.0543 0.0999,-0.1098 0.149,-0.1662 2.3128,-2.6681 3.5129,-6.5555 2.2395,-7.8958 -1.1954,-1.2588 -4.7291,-0.1409 -6.9065,2.3711 -0.3858,0.4458 -0.7138,0.9267 -0.9792,1.4222 -0.1617,-0.0695 -0.3244,-0.1358 -0.4887,-0.1992 z" />
    </g>
    <text
       id="text50"
       y="429.6019"
       x="310.2673">
      <tspan
         style="font-size:6.5px;font-family:'OCR A Extended';fill:#231f20"
         id="tspan48"
         font-size="6.5000">Internet Banda Larga</tspan>
    </text>
  </g>
</svg>
